<svg width="400" height="405" viewBox="0 0 400 405" fill="none" xmlns="http://www.w3.org/2000/svg">
<rect y="-0.00012207" width="400" height="400" rx="7" fill="#DD5D18"/>
<rect x="18" y="17.9999" width="364" height="364" rx="7" fill="#333333"/>
<path d="M163 344.156C163 347.437 161.406 349.125 158.219 349.125L39.1562 349.125C35.9687 349.125 34.375 347.437 34.375 344.156L34.375 333.75C34.375 330.469 35.9687 328.781 39.1562 328.781L158.219 328.781C161.406 328.781 163 330.469 163 333.75L163 344.156ZM97.9375 227.156L98.0312 227.156C99.4375 219.469 102.906 213.375 108.437 208.875C113.969 204.375 120.906 202.125 129.25 202.125C139.375 202.125 147.531 205.219 153.719 211.5C159.906 217.781 163 226.125 163 236.531L163 289.969C163 293.25 161.406 294.937 158.219 294.937L39.1562 294.937C35.9687 294.937 34.375 293.25 34.375 289.969L34.375 240.375C34.375 229.969 37.375 221.625 43.4687 215.344C49.5625 209.062 57.5312 205.969 67.375 205.969C75.0625 205.969 81.5312 207.844 86.7812 211.687C92.0312 215.531 95.3125 220.687 96.5312 227.156L97.9375 227.156ZM52.2812 245.531L52.4687 274.594L89.7812 274.594L89.7812 245.531C89.7812 239.625 88.0937 234.937 84.7187 231.469C81.3437 228 76.8437 226.219 71.2187 226.219C65.5937 226.219 61 228 57.5312 231.469C54.0625 234.937 52.2812 239.625 52.2812 245.531ZM145.469 241.687L145.375 241.687C145.375 235.781 143.594 231.094 140.031 227.625C136.469 224.156 131.687 222.375 125.781 222.375C119.781 222.375 115 224.156 111.437 227.625C107.875 231.094 106.094 235.781 106.094 241.687L106.094 274.594L145.469 274.594L145.469 241.687ZM34.375 127.406L34.2812 127.594C34.2812 114.656 38.2187 104.25 46.1875 96.4687C54.1562 88.6875 64.75 84.75 77.9687 84.75C91.1875 84.75 101.687 88.5937 109.562 96.375C117.437 104.156 121.375 114.469 121.375 127.406L121.375 157.031L158.219 157.031C161.406 157.031 163 158.719 163 162L163 172.406C163 175.687 161.406 177.375 158.219 177.375L39.1562 177.375C35.9687 177.375 34.375 175.687 34.375 172.406L34.375 127.406ZM102.625 129.187L102.812 129.187C102.812 121.781 100.562 115.875 96.0625 111.562C91.5625 107.25 85.5625 105.094 77.9687 105.094C70.375 105.094 64.375 107.25 59.875 111.562C55.375 115.875 53.125 121.781 53.125 129.187L53.125 157.219L102.625 157.219L102.625 129.187Z" fill="white"/>
<path d="M254.25 404.688H254.062C225.75 404.688 203.062 396.438 185.812 379.938C168.562 363.438 159.938 342.25 159.938 316.188C159.938 289.375 168.75 262.75 186.375 236.312L244.875 149.125C247.688 144.812 251.812 142.562 257.25 142.562H288.75C292.688 142.562 295.125 143.875 296.25 146.5C297.375 149.125 296.812 151.938 294.562 155.125L231.938 244H234.75C242.625 236.688 255.188 232.938 272.25 232.75C295.312 232.75 314.062 240.25 328.5 255.438C342.938 270.625 350.062 290.312 350.062 314.5C350.062 341.688 341.25 363.438 323.625 379.938C306 396.438 282.938 404.688 254.25 404.688ZM254.25 361.938L254.062 362.125C267.375 362.125 278.438 358 287.062 349.75C295.688 341.5 300 330.812 300 317.5C300 304.188 295.875 293.5 287.625 285.438C279.375 277.375 268.5 273.25 254.812 273.25C241.125 273.25 230.25 277.188 222 285.25C213.75 293.312 209.625 304.188 209.625 317.875C209.625 331.188 213.75 341.875 222 349.938C230.25 358 240.938 361.938 254.25 361.938Z" fill="#DD5D18"/>
</svg>
